/* XPM */
static char *sun_java_app[] = {
/* columns rows colors chars-per-pixel */
"39 48 203 2",
"   c #070204",
".  c #0C0404",
"X  c #080806",
"o  c #0E0A0A",
"O  c #110608",
"+  c #120B0C",
"@  c #140E11",
"#  c #1A0E10",
"$  c #13120F",
"%  c #18100F",
"&  c #161112",
"*  c #1A1314",
"=  c #1E171A",
"-  c #181D17",
";  c #1E1A19",
":  c #221719",
">  c #221B1A",
",  c #291B1D",
"<  c #2B1029",
"1  c #21201F",
"2  c #262020",
"3  c #2B2325",
"4  c #2F2C29",
"5  c #332B30",
"6  c #392F32",
"7  c #363132",
"8  c #393334",
"9  c #3D3A39",
"0  c #41242A",
"q  c #4E232B",
"w  c #432E3D",
"e  c #423637",
"r  c #403C37",
"t  c #433F3A",
"y  c #483A3F",
"u  c #5D2737",
"i  c #58353B",
"p  c #602431",
"a  c #453D41",
"s  c #752B45",
"d  c #793550",
"f  c #474B4C",
"g  c #4A4443",
"h  c #49474A",
"j  c #4E4B4E",
"k  c #4C4C54",
"l  c #534B4B",
"z  c #5F4C4F",
"x  c #554E51",
"c  c #5A4F56",
"v  c #57555B",
"b  c #5A5655",
"n  c #5E5C5A",
"m  c #5D6058",
"M  c #665658",
"N  c #625C55",
"B  c #635B5E",
"V  c #794B53",
"C  c #615E61",
"Z  c #666564",
"A  c #676868",
"S  c #6A6462",
"D  c #6A6A64",
"F  c #6A6B6B",
"G  c #706765",
"H  c #706863",
"J  c #726D6C",
"K  c #776D7A",
"L  c #74716F",
"P  c #787469",
"I  c #767273",
"U  c #7A7677",
"Y  c #7D7A7A",
"T  c #78827B",
"R  c #7B8582",
"E  c #80283E",
"W  c #90293F",
"Q  c #9D203B",
"!  c #BC1A23",
"~  c #B0223F",
"^  c #8B2646",
"/  c #922D4B",
"(  c #B51E40",
")  c #B4254A",
"_  c #894855",
"`  c #817E78",
"'  c #CD202F",
"]  c #CF2137",
"[  c #EC233E",
"{  c #DC2944",
"}  c #D1366D",
"|  c #ED2E50",
" . c #E23350",
".. c #F12A5C",
"X. c #F43258",
"o. c #F4366C",
"O. c #FF3D76",
"+. c #FD3A79",
"@. c #FF4476",
"#. c #807C80",
"$. c #EE5981",
"%. c #F64D80",
"&. c #FC4D80",
"*. c #F25A8C",
"=. c #F35D96",
"-. c #FF5E95",
";. c #F96195",
":. c #FC639C",
">. c #83827C",
",. c #88857D",
"<. c #8A887C",
"1. c #838282",
"2. c #868881",
"3. c #8C8587",
"4. c #89868C",
"5. c #8B8985",
"6. c #8C8A8A",
"7. c #8F8C92",
"8. c #90878A",
"9. c #918889",
"0. c #94938D",
"q. c #9A968D",
"w. c #949293",
"e. c #999394",
"r. c #9A9599",
"t. c #999893",
"y. c #9C9B9B",
"u. c #9DA0A0",
"i. c #A29B94",
"p. c #A59D9F",
"a. c #A89E94",
"s. c #A89C99",
"d. c #B09AAA",
"f. c #A5A49B",
"g. c #A9A49C",
"h. c #A6A5A5",
"j. c #AAA6A5",
"k. c #A9A7A8",
"l. c #ACABA3",
"z. c #ADACAD",
"x. c #AFADB0",
"c. c #B1AFAF",
"v. c #BCACAB",
"b. c #B2B3A5",
"n. c #B2B3AE",
"m. c #B3B3B3",
"M. c #B6B6B8",
"N. c #B9B7B6",
"B. c #B9B6B9",
"V. c #BCBBB3",
"C. c #BEBEBE",
"Z. c #BFBFC0",
"A. c #BFC1C1",
"S. c #D584B9",
"D. c #C0BFBF",
"F. c #EA9DBF",
"G. c #C0BFC0",
"H. c #C3C3BC",
"J. c #CBC3BD",
"K. c #D0CCBF",
"L. c #C0C0C0",
"P. c #C7C7C8",
"I. c #C7C8C7",
"U. c #C7C8C8",
"Y. c #CECBC4",
"T. c #CACBCB",
"R. c #CECFD0",
"E. c #CED2CB",
"W. c #CFD0D1",
"Q. c #D7C9C4",
"!. c #D0CFCF",
"~. c #DDCEC9",
"^. c #D7D6CD",
"/. c #DCDACD",
"(. c #D2D2D3",
"). c #DDDFD2",
"_. c #DBE0D4",
"`. c #E1D2CE",
"'. c #E5E4D7",
"]. c #E7E4D8",
"[. c #E6E9DC",
"{. c #EDE4DB",
"}. c #EBEBDE",
"|. c #F2F0DF",
" X c #EEECE2",
".X c #EFF2E5",
"XX c #EFF4E9",
"oX c #F0EEE0",
"OX c #F8EDE3",
"+X c #F0EAF0",
"@X c #F3F3E5",
"#X c #F6F6EC",
"$X c #F7F8E7",
"%X c #F7F8EC",
"&X c #F8F6E7",
"*X c #F8F7ED",
"=X c #F8F8E7",
"-X c #F8F9ED",
";X c #F7F7F2",
":X c #F7F8F0",
">X c #F8F7F0",
",X c #FBFBF2",
"<X c #FEFEFB",
/* pixels */
"L.L.L.L.L.L.L.C.L.L.C.L.C.L.L.L.L.L.L.C.L.L.L.L.L.C.C.C.I.N.U.C.C.C.G.L.C.L.L.",
"L.L.C.L.C.L.L.L.L.C.L.L.L.L.C.L.C.L.L.L.C.L.C.L.L.L.C.T.1.7 y.I.C.C.G.G.L.L.L.",
"C.L.C.L.L.C.L.C.L.L.L.L.C.L.L.L.L.C.L.C.L.L.L.L.L.C.P.h.; . I T.P.L.C.L.C.L.C.",
"L.L.L.L.L.L.L.L.L.C.L.C.L.L.C.L.L.L.L.L.L.C.L.C.C.C.U.I . 3 w.T.2.x.P.C.L.L.L.",
"C.L.C.L.L.L.L.C.L.C.L.L.L.L.L.L.L.L.L.L.L.C.C.C.L.L.N.7 + 7 W.Z O h C.L.C.L.L.",
"L.L.L.L.C.L.L.L.L.L.L.L.L.C.C.L.L.C.C.L.L.L.C.P.P.L.m.> O b C.2 X f L.L.L.L.C.",
"L.L.C.L.C.L.L.L.L.C.L.L.C.P.C.C.L.L.L.L.L.C.U.e.y.U.k.= + 3.9   : p.P.C.L.L.L.",
"L.C.L.L.L.L.L.C.L.L.C.U.r.J E.C.C.L.C.L.C.P.y.> = e.#.+ * a & & #.W.U.L.C.L.L.",
"L.C.L.L.L.L.L.L.L.L.C.P.h.% J T.C.C.L.L.C.L.k.3 X l U + & # + k (.w.U n.L.L.L.",
"L.L.C.L.C.L.C.L.C.L.L.L.b.3 O Y T.C.C.C.L.C.P.1.# = > = & = + Y g ; o N I.C.C.",
"L.L.L.L.L.L.L.L.L.L.C.L.C.9 O * Y T.C.C.L.L.C.P.l & = * @ # ; * & = . C P.C.L.",
"C.L.C.L.L.C.L.C.L.L.L.L.C.t O : * 4.T.C.C.L.C.P.y.@ * & & & = * * a #.M.L.L.L.",
"L.L.L.L.C.L.L.L.L.L.C.C.P.x O = = > t.P.C.C.C.P.j.& = % * & = & 6.P.P.L.C.L.L.",
"C.L.L.L.L.L.L.C.L.C.L.C.L.v X = * % 3 k.P.C.C.P.n.4 $ = & = O K E.L.C.C.L.C.L.",
"L.C.L.C.C.L.C.L.L.L.C.C.P.C o = & > # 9 L.L.C.C.U.B . * * & < V.L.C.L.L.L.L.L.",
"L.L.L.L.L.L.L.L.L.C.L.C.P.Z o = * & & X l C.C.C.P.u.1 * & $ 1.I.C.L.C.L.C.L.C.",
"L.L.L.L.C.L.C.L.L.L.C.C.I.F + & , s / u o U T.C.C.T.m @ 5 4.L.C.C.L.L.C.L.L.A.",
"C.L.C.L.L.L.L.L.L.C.C.C.T.Y o < } -.:.;.d ; h.P.C.I.y.7 m.U.C.L.L.L.L.L.C.L.L.",
"L.L.L.C.L.L.C.L.C.L.L.C.T.1.- d.F.*.=.:.%.q B L.C.P.y.I T.C.L.L.L.C.C.L.L.C.L.",
"C.L.L.L.L.C.L.L.L.L.C.C.T.>.w +XS.=.;.*.@._ Y ` I.D.4.N.L.C.L.L.L.L.L.L.L.L.L.",
"L.C.L.L.C.L.L.L.C.L.C.C.T.T ^ ;.@.$. .{ ..V ).S x.T.6.C.L.L.L.L.C.L.L.L.C.L.L.",
"L.L.C.L.L.L.L.C.L.L.C.C.T.R ^ O.o.] ! [ Q F ,Xg.>.L.z.C.L.L.L.C.L.L.L.C.L.L.L.",
"L.L.L.L.L.L.L.C.L.C.C.C.T.5.0 +.X.' | { i J.&X Xn l k.I.C.L.L.L.C.L.C.L.L.L.C.",
"L.L.C.L.C.L.L.L.L.L.C.C.U.9.B p ) ) p a j.OXoX*Xg.* k.P.C.L.C.L.L.L.L.L.L.C.L.",
"C.L.L.L.C.L.C.L.L.L.L.C.T.6.J.q.z M J v.{.&X@X.X].6 7.T.C.L.C.L.L.L.L.L.L.C.L.",
"L.L.L.C.L.L.L.L.C.L.C.L.N.Z /.,X`.Q.~.{.&X-X=X X-XP I U.C.C.L.L.C.L.C.L.L.L.L.",
"C.L.C.L.L.C.L.C.L.L.C.T.w.e |.-X#X@X&X-X=X-X@X}.&Xz.5.I.L.L.C.L.L.L.L.L.L.L.L.",
"L.L.L.L.L.L.L.L.L.L.C.T.A j -X#X#X-X-X#X#X-X@X}. X).` B.L.C.L.L.L.C.L.C.C.L.C.",
"C.L.C.L.L.L.L.C.C.C.P.m.b L ,X#X#X>X-X-X=X-X&X.X}.|.>.C.L.L.L.L.L.L.C.L.L.L.A.",
"L.L.L.L.C.L.L.L.C.L.m.e.r.t.,X&X=X&X&X&X&X-X=XoX[..Xl.9.U.C.C.L.L.C.L.L.L.L.C.",
"L.L.L.L.L.C.L.C.C.T.>.r.h.i.<X@X$X&X&X-X=X&X@X X X@XK.B T.C.L.L.L.L.L.L.C.L.L.",
"L.C.C.L.L.L.L.L.C.T.` 6.j.f.<X#X-X>X>X-X#X-X=X@X@X.X'.Y C.L.C.L.L.C.L.C.L.L.L.",
"L.C.L.L.L.L.C.L.C.W.#.I w.M.<X#X>X>X>X-X>X>X#X=X&X.X#X0.y.I.C.C.L.L.L.L.C.L.L.",
"L.A.C.L.L.C.L.L.C.L.z.g n }.,X#X;X>X>X>X>X>X-X-X@X@X>Xl.4.T.C.C.L.C.L.C.L.L.L.",
"L.L.L.L.L.L.L.L.L.C.W.j g <X#X;X;X>X>X;X;X>X>X-X=XXX,Xn.t.T.C.L.C.L.L.L.C.L.L.",
"L.C.L.L.L.C.L.C.L.C.W.g S <X#X;X,X;X;X>X>X>X>X-X=XXX-XJ.e.P.C.L.L.L.L.C.L.L.L.",
"C.L.L.L.C.L.L.L.C.C.L.8 s.<X#X;X;X,X;X;X>X%X-X-X=XXX#X(.6.C.L.L.L.L.L.C.L.L.C.",
"L.L.L.C.L.L.L.L.C.T.t.+ E.,X>X;X>X;X>X#X;X#X>X>X-XXX&X_.5.N.L.C.C.L.L.L.C.L.L.",
"C.L.C.L.L.L.L.L.C.T.I , oX,X>X;X-X>X#X,X<X,X#X>X-X-X#X}.,.m.L.C.L.C.L.C.L.C.L.",
"L.L.L.L.C.L.C.C.L.M.> b -X;X>X>X-X,X-X^.V.).<X>X>X-X#X.X` x.P.C.L.L.L.L.L.L.L.",
"L.L.C.L.C.L.L.C.I.M.+ Y -X=X>X=X,XD.H n J l t.,X;X%X-X-X5.z.P.C.L.C.L.C.L.C.L.",
"C.L.L.L.L.L.L.C.L.L.F 0.,X-X-X-X0.b u.H.C.C.N f.<X%X#X-X5.z.L.L.L.L.L.L.L.L.L.",
"L.L.C.L.L.L.L.L.C.E.6.a.,X#X=X<.I U.P.L.C.I.C.S ).-X#X-X5.z.L.C.L.C.L.L.L.C.L.",
"C.L.L.L.L.C.L.C.C.T.4.g.,X@X<.Y T.C.C.L.C.C.I.t.5.,X#X@X5.m.P.L.L.L.C.L.L.L.C.",
"L.C.L.L.L.C.L.L.C.U.4.i.,X>.` T.C.C.L.L.L.C.C.P.D Y.<X).3.C.L.C.L.L.L.L.C.L.L.",
"L.L.C.L.L.L.L.L.C.P.k.D L 1.T.C.C.L.L.L.L.C.C.U.y.S ,Xb.6.T.C.L.C.L.L.C.L.L.L.",
"L.L.L.L.L.C.L.L.C.C.P.7.e.U.C.C.L.L.L.L.C.L.C.C.U.#.H I z.L.C.L.C.L.L.L.C.L.C.",
"C.L.C.L.L.L.C.L.C.L.C.P.P.C.L.L.L.C.L.C.L.L.L.L.L.C.e.x.I.C.L.L.L.L.L.C.L.L.L."
};
